<svg width="455" height="204" viewBox="0 0 455 204" fill="none" xmlns="http://www.w3.org/2000/svg">
<path d="M70.7398 201.645L70.0063 201.204C70.2123 200.861 90.6625 166.778 93.8464 158.286L94.6479 158.587C91.4359 167.152 71.583 200.241 70.7398 201.645Z" fill="#8B9D36"/>
<path d="M87.3159 140.414C88.1815 142.555 88.8433 144.774 89.2926 147.04C89.752 149.259 90.0893 151.502 90.3029 153.758C90.5223 156.013 90.6152 158.28 90.5812 160.546C90.5683 162.856 90.3346 165.16 89.8834 167.426C89.0137 165.286 88.3502 163.067 87.9021 160.8C87.442 158.581 87.1062 156.338 86.8964 154.082C86.6811 151.826 86.5898 149.56 86.6228 147.294C86.637 144.984 86.8691 142.68 87.3159 140.414Z" fill="#8B9D36"/>
<path d="M79.7689 150.734C80.8229 152.729 81.6818 154.822 82.3339 156.982C82.9913 159.093 83.5294 161.24 83.9454 163.412C84.3669 165.583 84.6639 167.777 84.8349 169.982C85.0302 172.23 85.0056 174.492 84.7614 176.736C83.7035 174.742 82.8429 172.65 82.1918 170.489C81.534 168.378 80.9975 166.23 80.5849 164.058C80.167 161.886 79.8716 159.692 79.7 157.488C79.5059 155.239 79.5289 152.978 79.7689 150.734Z" fill="#8B9D36"/>
<path d="M75.6102 162.75C76.5383 164.604 77.2701 166.55 77.7937 168.557C78.3222 170.511 78.7302 172.496 79.0154 174.501C79.3059 176.505 79.471 178.525 79.5096 180.549C79.5697 182.622 79.41 184.696 79.0333 186.736C78.1011 184.883 77.3676 182.937 76.8452 180.929C76.3159 178.975 75.9094 176.99 75.6281 174.984C75.3412 172.98 75.1777 170.96 75.1385 168.936C75.0795 166.863 75.2376 164.789 75.6102 162.75Z" fill="#8B9D36"/>
<path d="M70.3734 174.743C71.3053 176.296 72.0485 177.955 72.5874 179.685C73.1266 181.355 73.5466 183.062 73.8442 184.792C74.1476 186.521 74.3256 188.269 74.3769 190.024C74.4503 191.834 74.3048 193.647 73.9437 195.423C73.0079 193.871 72.2629 192.212 71.7251 190.482C71.1852 188.812 70.7666 187.105 70.4724 185.374C70.1731 183.644 69.9966 181.896 69.9443 180.141C69.8722 178.331 70.0163 176.519 70.3734 174.743Z" fill="#8B9D36"/>
<path d="M65.7528 182.239C66.7035 183.586 67.4883 185.043 68.0901 186.578C68.6799 188.044 69.1709 189.548 69.5596 191.079C69.9447 192.599 70.241 194.141 70.447 195.695C70.5431 196.479 70.6313 197.258 70.6898 198.052C70.72 198.861 70.8063 199.668 70.948 200.465C70.7503 200.359 70.5604 200.239 70.3797 200.106L69.9185 199.644C69.6244 199.329 69.3547 198.991 69.1117 198.635C68.6433 197.948 68.2286 197.226 67.8712 196.476C67.177 195.017 66.6316 193.491 66.2434 191.923C65.8474 190.369 65.591 188.782 65.4771 187.182C65.3389 185.53 65.4317 183.866 65.7528 182.239Z" fill="#8B9D36"/>
<path d="M91.8037 163.735C93.3566 162.032 95.1038 160.517 97.0097 159.22C98.8459 157.945 100.769 156.798 102.764 155.789C104.756 154.774 106.818 153.901 108.933 153.177C111.106 152.407 113.363 151.897 115.656 151.659C114.107 153.366 112.36 154.883 110.453 156.179C108.617 157.455 106.693 158.6 104.696 159.605C102.701 160.616 100.639 161.487 98.5239 162.212C96.3511 162.981 94.0956 163.492 91.8037 163.735Z" fill="#8B9D36"/>
<path d="M86.6904 173.288C88.6763 171.664 90.8286 170.254 93.1114 169.084C95.3284 167.921 97.6155 166.896 99.9594 166.017C102.301 165.13 104.696 164.393 107.13 163.809C109.619 163.185 112.168 162.83 114.732 162.75C112.749 164.378 110.597 165.789 108.314 166.959C106.097 168.123 103.809 169.146 101.464 170.021C99.1205 170.903 96.7248 171.638 94.2905 172.223C91.8019 172.845 89.2543 173.202 86.6904 173.288Z" fill="#8B9D36"/>
<path d="M80.6709 183.906C82.439 182.336 84.381 180.974 86.4589 179.847C88.467 178.732 90.5483 177.753 92.6885 176.919C94.8261 176.079 97.0192 175.387 99.252 174.848C101.545 174.268 103.897 173.956 106.261 173.918C104.496 175.491 102.554 176.855 100.475 177.982C98.4673 179.098 96.3851 180.074 94.2432 180.904C92.1038 181.74 89.9103 182.431 87.6777 182.97C85.3854 183.549 83.0345 183.862 80.6709 183.906Z" fill="#8B9D36"/>
<path d="M75.9136 192.079C77.4538 190.744 79.163 189.618 80.9971 188.73C82.7518 187.857 84.5729 187.125 86.4434 186.54C88.312 185.949 90.2253 185.509 92.1645 185.226C94.1782 184.909 96.2253 184.86 98.2517 185.083C96.7141 186.422 95.0051 187.55 93.1698 188.437C91.4155 189.311 89.5934 190.041 87.7215 190.622C85.8516 191.208 83.9381 191.646 81.9991 191.929C79.9859 192.246 77.9398 192.296 75.9136 192.079Z" fill="#8B9D36"/>
<path d="M72.1582 199.412C73.8515 197.786 75.7265 196.361 77.7461 195.165C79.6958 193.985 81.7239 192.938 83.8161 192.033C85.9056 191.122 88.0559 190.358 90.2514 189.745C92.5056 189.089 94.8286 188.698 97.1733 188.581C95.4832 190.21 93.6087 191.637 91.5879 192.832C89.6386 194.014 87.6095 195.059 85.5154 195.959C83.4241 196.866 81.2733 197.629 79.0781 198.242C76.8241 198.897 74.5021 199.289 72.1582 199.412Z" fill="#8B9D36"/>
<path d="M93.4653 159.669C93.1529 157.387 93.2092 155.07 93.6321 152.806C94.0043 150.671 94.5901 148.579 95.3806 146.562C96.1637 144.542 97.1511 142.607 98.3275 140.787C99.5536 138.836 101.088 137.097 102.872 135.638C103.191 137.92 103.138 140.239 102.713 142.504C102.342 144.639 101.753 146.73 100.957 148.745C100.168 150.763 99.1781 152.697 98.0024 154.517C96.7758 156.466 95.2439 158.206 93.4653 159.669Z" fill="#8B9D36"/>
<path d="M67.5981 203.044L66.7422 203.03C66.7805 200.692 67.7955 145.559 78.8226 128.098L79.5458 128.556C68.6464 145.815 67.6075 202.474 67.5981 203.044Z" fill="#50661A"/>
<path d="M75.6411 135.973C75.9802 133.416 76.0662 130.831 75.8976 128.256C75.7554 125.747 75.477 123.248 75.0637 120.769C74.6642 118.301 74.1207 115.856 73.4814 113.432C72.843 110.992 72.0366 108.645 71.1751 106.144C70.9317 106.765 70.7469 107.408 70.6231 108.063C70.4852 108.707 70.3844 109.358 70.3215 110.013C70.1879 111.299 70.1299 112.591 70.1477 113.883C70.1854 116.426 70.4183 118.962 70.8442 121.469C71.2587 123.968 71.8451 126.436 72.599 128.854C73.3445 131.333 74.3649 133.721 75.6411 135.973Z" fill="#50661A"/>
<path d="M89.1955 101.061C87.3002 102.889 85.6749 104.978 84.3685 107.264C83.0961 109.433 82.0137 111.707 81.1334 114.062C80.2451 116.415 79.5656 118.841 79.1028 121.312C78.5853 123.895 78.4426 126.539 78.6791 129.163C80.58 127.339 82.2082 125.251 83.5137 122.963C84.7872 120.795 85.8673 118.519 86.7413 116.162C87.6235 113.807 88.3004 111.381 88.7644 108.909C89.2802 106.327 89.4254 103.684 89.1955 101.061Z" fill="#50661A"/>
<path d="M98.2827 115.112C96.034 116.919 93.9103 118.876 91.9261 120.97C89.9615 123.007 88.0868 125.089 86.2525 127.183L80.803 133.437C79.8888 134.462 78.965 135.471 77.989 136.427C77.0246 137.44 75.9014 138.288 74.6636 138.939C75.4185 139.071 76.1922 139.052 76.9394 138.882C77.6931 138.731 78.4282 138.5 79.1321 138.192C80.5098 137.586 81.8189 136.836 83.0374 135.952C85.4023 134.221 87.5608 132.224 89.4706 130C91.3702 127.822 93.0804 125.485 94.5825 123.016C96.1288 120.539 97.3712 117.886 98.2827 115.112Z" fill="#50661A"/>
<path d="M98.2832 129.163C95.5111 130.548 92.8668 132.174 90.381 134.024C87.9212 135.823 85.5548 137.747 83.2911 139.787C81.0225 141.822 78.8612 143.974 76.8158 146.233C74.7154 148.512 72.8228 150.974 71.1606 153.589C73.9355 152.21 76.5815 150.584 79.067 148.733C81.5274 146.935 83.8926 145.01 86.1531 142.966C88.4186 140.927 90.5784 138.774 92.6243 136.516C94.7234 134.236 96.6171 131.776 98.2832 129.163Z" fill="#50661A"/>
<path d="M97.3589 140.188C94.5662 141.488 91.8945 143.033 89.3752 144.805C86.8834 146.528 84.4817 148.377 82.1796 150.346C79.8729 152.309 77.6704 154.392 75.581 156.585C73.4361 158.797 71.4942 161.197 69.7788 163.756C72.5742 162.461 75.2476 160.917 77.7666 159.143C80.2588 157.422 82.6592 155.571 84.9581 153.598C87.2618 151.631 89.463 149.547 91.553 147.355C93.6967 145.142 95.6396 142.744 97.3589 140.188Z" fill="#50661A"/>
<path d="M96.7427 151.972C93.9636 153.017 91.2866 154.316 88.7457 155.852C86.2374 157.339 83.8104 158.959 81.4748 160.705C79.135 162.445 76.8914 164.31 74.7538 166.294C72.5581 168.293 70.5536 170.493 68.7661 172.865C71.5474 171.824 74.2257 170.527 76.7664 168.99C79.2751 167.503 81.7012 165.882 84.0339 164.132C86.3709 162.388 88.6132 160.521 90.7512 158.538C92.9457 156.538 94.9513 154.34 96.7427 151.972Z" fill="#50661A"/>
<path d="M97.3586 160.521C94.4511 161.691 91.6514 163.113 88.9914 164.77C86.361 166.379 83.8133 168.12 81.3583 169.986C78.8988 171.846 76.5364 173.831 74.2805 175.934C71.9686 178.051 69.8482 180.368 67.9443 182.858C70.8541 181.693 73.6552 180.272 76.3149 178.614C78.9458 177.005 81.4924 175.263 83.9446 173.393C86.4013 171.529 88.7623 169.543 91.0187 167.441C93.3294 165.323 95.4508 163.008 97.3586 160.521Z" fill="#50661A"/>
<path d="M99.5151 168.532C96.4879 169.94 93.5651 171.562 90.7689 173.386C87.9921 175.164 85.3056 177.044 82.6863 179.005C80.0595 180.955 77.5054 182.988 74.9964 185.089C72.4615 187.172 70.067 189.341 67.4443 191.49C69.1284 191.213 70.7728 190.733 72.3416 190.06C73.8948 189.411 75.4128 188.68 76.8891 187.871C79.7929 186.246 82.5849 184.429 85.2462 182.432C87.8981 180.444 90.433 178.304 92.8384 176.024C95.2893 173.737 97.5243 171.229 99.5151 168.532Z" fill="#50661A"/>
<path d="M102.134 176.85C98.8624 178.122 95.6882 179.63 92.6364 181.364C89.6035 183.054 86.6599 184.868 83.7841 186.778C80.9078 188.687 78.1009 190.695 75.3634 192.801C73.9951 193.857 72.6398 194.932 71.2976 196.025C69.9993 197.177 68.62 198.233 67.1704 199.186C68.0794 199.187 68.9818 199.032 69.8386 198.728C70.6984 198.473 71.5332 198.163 72.3589 197.841C74.0055 197.187 75.5965 196.44 77.1571 195.647C80.2548 194.052 83.2584 192.279 86.1531 190.339C89.0473 188.414 91.8421 186.342 94.5265 184.133C97.2591 181.92 99.8035 179.484 102.134 176.85Z" fill="#50661A"/>
<path d="M72.9865 145.76C72.8475 142.98 72.4363 140.221 71.7589 137.522C71.1194 134.872 70.329 132.261 69.3916 129.701C68.4609 127.139 67.3822 124.633 66.161 122.196C64.9383 119.696 63.4707 117.323 61.7798 115.112C61.9138 117.892 62.323 120.652 63.0015 123.352C63.6406 126.002 64.433 128.612 65.3747 131.171C66.3097 133.731 67.3902 136.236 68.6107 138.674C69.8342 141.173 71.2998 143.546 72.9865 145.76Z" fill="#50661A"/>
<path d="M71.1602 155.379C70.6355 152.614 69.8438 149.907 68.7962 147.295C67.7927 144.726 66.6449 142.216 65.3584 139.777C64.0783 137.335 62.659 134.968 61.1076 132.688C59.5466 130.346 57.7596 128.163 55.7725 126.17C56.2924 128.936 57.0824 131.644 58.131 134.256C59.1342 136.825 60.2838 139.334 61.5742 141.771C62.8585 144.212 64.2794 146.578 65.8301 148.858C67.392 151.199 69.1771 153.382 71.1602 155.379Z" fill="#50661A"/>
<path d="M69.779 164.68C68.8789 161.874 67.7205 159.157 66.3186 156.565C64.9642 154.008 63.4734 151.526 61.8526 149.129C60.2375 146.729 58.4923 144.418 56.6249 142.208C54.7434 139.939 52.6533 137.852 50.3818 135.973C51.2773 138.782 52.4343 141.5 53.8376 144.092C55.1912 146.649 56.6837 149.131 58.3087 151.525C59.9274 153.923 61.6741 156.232 63.541 158.442C65.423 160.71 67.5112 162.799 69.779 164.68Z" fill="#50661A"/>
<path d="M68.7664 174.943C67.3549 171.91 65.698 168.997 63.8123 166.233C61.971 163.485 60.0063 160.838 57.9182 158.291C55.837 155.74 53.6353 153.286 51.3129 150.931C48.9813 148.531 46.4546 146.329 43.7588 144.347C45.1648 147.383 46.8203 150.298 48.7082 153.061C50.5495 155.809 52.5156 158.455 54.6066 160.999C56.6927 163.547 58.896 165.999 61.2164 168.355C63.5493 170.753 66.0744 172.957 68.7664 174.943Z" fill="#50661A"/>
<path d="M67.9444 185.585C66.2139 182.701 64.252 179.963 62.0779 177.397C59.9495 174.842 57.7087 172.4 55.3556 170.072C53.0091 167.737 50.5528 165.512 47.9866 163.398C45.4067 161.24 42.6531 159.299 39.7539 157.595C41.4793 160.482 43.4401 163.221 45.6163 165.786C47.7446 168.341 49.9867 170.781 52.3423 173.107C54.6933 175.438 57.1511 177.661 59.7155 179.777C62.2965 181.933 65.0486 183.875 67.9444 185.585Z" fill="#50661A"/>
<path d="M67.4445 192.408C65.525 189.92 63.3924 187.604 61.0708 185.487C58.8035 183.385 56.4319 181.398 53.9649 179.534C51.5025 177.664 48.9459 175.922 46.3051 174.314C43.6355 172.656 40.8248 171.236 37.9058 170.072C39.8216 172.563 41.9533 174.881 44.2762 176.998C46.5429 179.101 48.9157 181.086 51.3854 182.946C53.8508 184.812 56.4086 186.553 59.0489 188.161C61.7188 189.818 64.528 191.239 67.4445 192.408Z" fill="#50661A"/>
<path d="M67.1705 198.108C64.8677 195.837 62.3767 193.766 59.7241 191.916C57.1203 190.064 54.4372 188.352 51.6749 186.778C48.9169 185.196 46.0817 183.749 43.1694 182.437C40.2306 181.086 37.1813 179.99 34.0552 179.16C36.3548 181.435 38.8452 183.508 41.499 185.357C44.1028 187.209 46.7867 188.92 49.5507 190.491C52.3117 192.067 55.1478 193.513 58.0591 194.826C60.9981 196.175 64.0461 197.273 67.1705 198.108Z" fill="#50661A"/>
<path d="M67.3831 201.805C64.6202 199.898 61.7066 198.22 58.6713 196.786C55.6822 195.343 52.6346 194.057 49.5374 192.906C46.4405 191.754 43.2895 190.748 40.0843 189.887C36.8482 188.993 33.5437 188.368 30.2046 188.018C32.9645 189.93 35.8777 191.61 38.9144 193.042C41.9039 194.485 44.9492 195.776 48.0504 196.917C51.1493 198.063 54.2984 199.075 57.5055 199.93C60.7417 200.822 64.0452 201.449 67.3831 201.805Z" fill="#50661A"/>
<path d="M65.8858 201.51C65.0426 200.106 45.1896 167.016 41.9785 158.452L42.78 158.151C45.9631 166.643 66.4133 200.726 66.6192 201.069L65.8858 201.51Z" fill="#5E7C24"/>
<path d="M49.2667 140.414C48.4011 142.555 47.7393 144.774 47.29 147.04C46.8306 149.259 46.4933 151.502 46.2797 153.758C46.0604 156.013 45.9675 158.28 46.0015 160.546C46.0144 162.856 46.248 165.16 46.6992 167.426C47.569 165.286 48.2324 163.067 48.6805 160.8C49.1406 158.581 49.4764 156.338 49.6862 154.082C49.9015 151.826 49.9928 149.56 49.9598 147.294C49.9456 144.984 49.7135 142.68 49.2667 140.414Z" fill="#5E7C24"/>
<path d="M56.8143 150.734C55.7603 152.729 54.9013 154.822 54.2493 156.982C53.5918 159.093 53.0538 161.24 52.6378 163.412C52.2163 165.583 51.9193 167.777 51.7482 169.982C51.553 172.23 51.5776 174.492 51.8218 176.736C52.8797 174.742 53.7403 172.65 54.3914 170.489C55.0492 168.378 55.5857 166.23 55.9983 164.058C56.4162 161.886 56.7116 159.692 56.8832 157.488C57.0773 155.239 57.0542 152.978 56.8143 150.734Z" fill="#5E7C24"/>
<path d="M60.9728 162.75C60.0447 164.604 59.3128 166.55 58.7893 168.557C58.2607 170.511 57.8527 172.496 57.5676 174.501C57.2771 176.505 57.112 178.525 57.0733 180.549C57.0133 182.622 57.173 184.696 57.5497 186.736C58.4819 184.883 59.2154 182.937 59.7378 180.929C60.2671 178.975 60.6736 176.99 60.9549 174.984C61.2418 172.98 61.4053 170.96 61.4445 168.936C61.5035 166.863 61.3454 164.789 60.9728 162.75Z" fill="#5E7C24"/>
<path d="M66.2095 174.743C65.2776 176.296 64.5344 177.955 63.9955 179.685C63.4563 181.355 63.0363 183.062 62.7387 184.792C62.4353 186.521 62.2573 188.269 62.2059 190.024C62.1326 191.834 62.2781 193.647 62.6392 195.423C63.575 193.871 64.32 192.212 64.8578 190.482C65.3977 188.812 65.8163 187.105 66.1104 185.374C66.4098 183.644 66.5863 181.896 66.6386 180.141C66.7107 178.331 66.5666 176.519 66.2095 174.743Z" fill="#5E7C24"/>
<path d="M70.8304 182.239C69.8797 183.586 69.095 185.043 68.4931 186.578C67.9033 188.044 67.4124 189.548 67.0237 191.079C66.6385 192.599 66.3422 194.141 66.1362 195.695C66.0401 196.479 65.952 197.258 65.8935 198.052C65.8632 198.861 65.7769 199.668 65.6353 200.465C65.8329 200.359 66.0228 200.239 66.2035 200.106L66.6648 199.644C66.9588 199.329 67.2285 198.991 67.4716 198.635C67.94 197.948 68.3547 197.226 68.7121 196.476C69.4063 195.017 69.9516 193.491 70.3399 191.923C70.7358 190.369 70.9923 188.782 71.1061 187.182C71.2443 185.53 71.1515 183.866 70.8304 182.239Z" fill="#5E7C24"/>
<path d="M44.7786 163.735C43.2257 162.032 41.4784 160.517 39.5726 159.22C37.7364 157.945 35.8137 156.798 33.8184 155.789C31.8261 154.774 29.7645 153.901 27.6489 153.177C25.476 152.407 23.2193 151.897 20.9263 151.659C22.4757 153.366 24.2223 154.883 26.1293 156.179C27.9652 157.455 29.889 158.6 31.8864 159.605C33.8808 160.616 35.9431 161.487 38.0584 162.212C40.2312 162.981 42.4867 163.492 44.7786 163.735Z" fill="#5E7C24"/>
<path d="M49.8928 173.288C47.907 171.664 45.7546 170.254 43.4718 169.084C41.2548 167.921 38.9678 166.896 36.6238 166.017C34.2824 165.13 31.8873 164.393 29.4528 163.809C26.9641 163.185 24.4156 162.83 21.8511 162.75C23.8341 164.378 25.9858 165.789 28.2696 166.959C30.4861 168.123 32.7741 169.146 35.1197 170.021C37.4628 170.903 39.8584 171.638 42.2927 172.223C44.7814 172.845 47.3289 173.202 49.8928 173.288Z" fill="#5E7C24"/>
<path d="M55.9122 183.906C54.1441 182.336 52.2021 180.974 50.1242 179.847C48.1161 178.732 46.0348 177.753 43.8946 176.919C41.757 176.079 39.564 175.387 37.3311 174.848C35.0386 174.268 32.6866 173.956 30.3223 173.918C32.0875 175.491 34.0291 176.855 36.1082 177.982C38.1158 179.098 40.198 180.074 42.3399 180.904C44.4793 181.74 46.6728 182.431 48.9055 182.97C51.1977 183.549 53.5486 183.862 55.9122 183.906Z" fill="#5E7C24"/>
<path d="M60.6692 192.079C59.129 190.744 57.4198 189.618 55.5856 188.73C53.8309 187.857 52.0098 187.125 50.1394 186.54C48.2708 185.949 46.3575 185.509 44.4182 185.226C42.4045 184.909 40.3575 184.86 38.3311 185.083C39.8687 186.422 41.5777 187.55 43.413 188.437C45.1673 189.311 46.9893 190.041 48.8613 190.622C50.7312 191.208 52.6447 191.646 54.5837 191.929C56.5969 192.246 58.6429 192.296 60.6692 192.079Z" fill="#5E7C24"/>
<path d="M64.4248 199.412C62.7315 197.786 60.8565 196.361 58.8369 195.165C56.8871 193.985 54.8591 192.938 52.7669 192.033C50.6774 191.122 48.5271 190.358 46.3316 189.745C44.0774 189.089 41.7544 188.698 39.4097 188.581C41.0998 190.21 42.9742 191.637 44.995 192.832C46.9444 194.014 48.9735 195.059 51.0676 195.959C53.1589 196.866 55.3097 197.629 57.5049 198.242C59.7589 198.897 62.0809 199.289 64.4248 199.412Z" fill="#5E7C24"/>
<path d="M43.1173 159.669C43.4298 157.387 43.3735 155.07 42.9506 152.806C42.5784 150.671 41.9926 148.579 41.2021 146.562C40.419 144.542 39.4316 142.607 38.2552 140.787C37.0291 138.836 35.4943 137.097 33.7107 135.638C33.3913 137.92 33.4449 140.239 33.8694 142.504C34.2409 144.639 34.8293 146.73 35.6255 148.745C36.4146 150.763 37.4045 152.697 38.5803 154.517C39.8069 156.466 41.3388 158.206 43.1173 159.669Z" fill="#5E7C24"/>
<path d="M176.471 0.344464C167.713 0.86588 158.953 1.2764 150.191 1.57601C141.429 1.8998 132.665 2.12169 123.9 2.324C115.135 2.49355 106.37 2.64118 97.6018 2.68757C88.8346 2.75841 80.065 2.71659 71.293 2.56209C80.0506 2.03875 88.8107 1.62738 97.5732 1.328C106.335 1.00463 115.099 0.782749 123.864 0.582559C132.629 0.415132 141.395 0.267497 150.162 0.221541C158.93 0.151528 167.699 0.192496 176.471 0.344464Z" fill="#EBC136"/>
<path d="M105.936 26.6939C97.1777 27.2153 88.4176 27.6259 79.6552 27.9257C70.8933 28.2495 62.1292 28.4714 53.3647 28.6735C44.5996 28.843 35.834 28.9909 27.0662 29.037C18.299 29.1081 9.52932 29.0663 0.757324 28.9117C9.51501 28.3882 18.2751 27.9767 27.0376 27.6774C35.7995 27.354 44.5635 27.1322 53.3281 26.9322C62.0933 26.7648 70.8589 26.6169 79.6267 26.5712C88.394 26.501 97.1636 26.5419 105.936 26.6939Z" fill="#EBC136"/>
<path d="M136.083 56.1825C127.325 56.7039 118.565 57.1145 109.803 57.4143C101.041 57.7381 92.2767 57.9599 83.5122 58.162C74.7471 58.3316 65.9814 58.4795 57.2137 58.5256C48.4464 58.5967 39.6768 58.5549 30.9048 58.4003C39.6625 57.8768 48.4226 57.4653 57.185 57.166C65.947 56.8427 74.711 56.6207 83.4755 56.4208C92.2408 56.2533 101.006 56.1055 109.774 56.0598C118.541 55.9896 127.311 56.0305 136.083 56.1825Z" fill="#EBC136"/>
<path d="M453.732 203.909H23.4601C23.2291 203.909 23.0075 203.817 22.8441 203.653C22.6807 203.49 22.5889 203.268 22.5889 203.037C22.5889 202.806 22.6807 202.585 22.8441 202.421C23.0075 202.258 23.2291 202.166 23.4601 202.166H453.732C453.963 202.166 454.184 202.258 454.348 202.421C454.511 202.585 454.603 202.806 454.603 203.037C454.603 203.268 454.511 203.49 454.348 203.653C454.184 203.817 453.963 203.909 453.732 203.909Z" fill="#8C8686"/>
</svg>
